# xmcd
#
# Track frame offsets:
#	150
#	11162
#	24374
#	37253
#	54907
#	69436
#	82594
#	99255
#	111470
#	123762
#	139441
#	158294
#	171906
#	181886
#	194765
#	207000
#	220205
#	231168
#	242844
#	254928
#	266922
#	281167
#	294477
#
# Disc length: 4097
#
# Revision: 3
# Processed by: cddbd v1.5.1PL0 Copyright (c) Steve Scherf et al.
# Submitted via: cddb2pg 0.002
# Normalized: r2:DSETVAR2
#
DISCID=560fff17
DTITLE=Various Artist - Country
DYEAR=1900
DGENRE=
TTITLE0=Faron Young - Hello Walls
TTITLE1=Faron young - save the last dance for me
TTITLE2=Hank Locklin - Wabash Cannonball
TTITLE3=Hank Williams III - Cocaine Blues
TTITLE4=John Denver - Take Me Home Country Roads
TTITLE5=Johnny Cash - Ballad Of Ira Hayes
TTITLE6=Johnny Cash and Willie Nelson - Folsom Prison Blues
TTITLE7=Johnny Rivers - Mountain Of Love
TTITLE8=Johnny Rivers - Oh, Lonesome Me
TTITLE9=Johnny Rivers - Rockin' Pneumonia And The Boogie Woogie Flu
TTITLE10=Rogers, Kenny and Dolly Parton - Islands in the Stream
TTITLE11=Lynn Anderson - Rose Garden
TTITLE12=MARTY ROBBINS - Marty Robbins - Devil Woman
TTITLE13=Marty Robbins - The Streets Of Laredo
TTITLE14=Merle Haggard - Okie From Muskogee
TTITLE15=Bobby Bare - Millers Cave
TTITLE16=The Everly Brothers - Till I Kissed You
TTITLE17=The Monkees - Listen To The Band
TTITLE18=Young, Faron - Country Girl  (1959)
TTITLE19=Dolly Parton - Jolene
TTITLE20=Dolly Parton - Coat Of Many Colors
TTITLE21=Ray Price and Faron Young - Mansion on the Hill
TTITLE22=Tammy Wynette, Loretta, Dolly - It Wasn't God Who Made Honky T
EXTD=
EXTT0=
EXTT1=Pretty slowCOMRomanticTRC
EXTT2=
EXTT3=
EXTT4=
EXTT5=
EXTT6=
EXTT7=
EXTT8=
EXTT9=
EXTT10=8TME
EXTT11=
EXTT12=
EXTT13=
EXTT14=
EXTT15=
EXTT16=
EXTT17=
EXTT18=
EXTT19=much appreciated,  David
EXTT20=
EXTT21=*** K ***
EXTT22=, AG# 323CF46C
PLAYORDER=
